<mxfile host="app.diagrams.net" agent="Mozilla/5.0 (Windows NT 10.0; Win64; x64) AppleWebKit/537.36 (KHTML, like Gecko) Chrome/131.0.0.0 Safari/537.36 Edg/131.0.0.0" version="24.9.0" pages="3">
  <diagram name="Assignment01" id="YQNJQ6a5uJNEXBnVBi4n">
    <mxGraphModel dx="3035" dy="1420" grid="1" gridSize="10" guides="1" tooltips="1" connect="1" arrows="1" fold="1" page="1" pageScale="1" pageWidth="850" pageHeight="1100" math="0" shadow="0">
      <root>
        <mxCell id="0" />
        <mxCell id="1" parent="0" />
        <mxCell id="2CK58GjSMjasro4L5q2h-9" value="" style="rounded=0;whiteSpace=wrap;html=1;" parent="1" vertex="1">
          <mxGeometry x="-810" y="50" width="1220" height="570" as="geometry" />
        </mxCell>
        <mxCell id="TGg97sCdS2oQXF3Zb6yF-1" value="&amp;lt;&amp;lt;&lt;span class=&quot;hljs-keyword&quot;&gt;abstract&lt;/span&gt;&amp;gt;&amp;gt; Employee" style="swimlane;fontStyle=1;align=center;verticalAlign=top;childLayout=stackLayout;horizontal=1;startSize=26;horizontalStack=0;resizeParent=1;resizeParentMax=0;resizeLast=0;collapsible=1;marginBottom=0;whiteSpace=wrap;html=1;" parent="1" vertex="1">
          <mxGeometry x="-800" y="280" width="490" height="240" as="geometry" />
        </mxCell>
        <mxCell id="TGg97sCdS2oQXF3Zb6yF-2" value="&lt;span class=&quot;hljs-comment&quot;&gt;# id: string&lt;/span&gt;&lt;br/&gt;&lt;span class=&quot;hljs-comment&quot;&gt;# fullName: string&lt;/span&gt;&lt;br/&gt;&lt;span class=&quot;hljs-comment&quot;&gt;# hireDate: string&lt;/span&gt;&lt;br/&gt;&lt;span class=&quot;hljs-comment&quot;&gt;# address: string&lt;/span&gt;" style="text;strokeColor=none;fillColor=none;align=left;verticalAlign=top;spacingLeft=4;spacingRight=4;overflow=hidden;rotatable=0;points=[[0,0.5],[1,0.5]];portConstraint=eastwest;whiteSpace=wrap;html=1;" parent="TGg97sCdS2oQXF3Zb6yF-1" vertex="1">
          <mxGeometry y="26" width="490" height="64" as="geometry" />
        </mxCell>
        <mxCell id="TGg97sCdS2oQXF3Zb6yF-3" value="" style="line;strokeWidth=1;fillColor=none;align=left;verticalAlign=middle;spacingTop=-1;spacingLeft=3;spacingRight=3;rotatable=0;labelPosition=right;points=[];portConstraint=eastwest;strokeColor=inherit;" parent="TGg97sCdS2oQXF3Zb6yF-1" vertex="1">
          <mxGeometry y="90" width="490" height="8" as="geometry" />
        </mxCell>
        <mxCell id="TGg97sCdS2oQXF3Zb6yF-4" value="&lt;div&gt;&lt;span class=&quot;hljs-keyword&quot;&gt;+ &amp;lt;&amp;lt;constructor&amp;gt;&amp;gt; &lt;span class=&quot;hljs-title function_ invoke__&quot;&gt;Employee&lt;/span&gt;()&lt;br&gt;+ &amp;lt;&amp;lt;constructor&amp;gt;&amp;gt; &lt;span class=&quot;hljs-title function_ invoke__&quot;&gt;Employee&lt;/span&gt;(&lt;span class=&quot;hljs-attr&quot;&gt;id&lt;/span&gt;: &lt;span class=&quot;hljs-keyword&quot;&gt;string&lt;/span&gt;, &lt;span class=&quot;hljs-attr&quot;&gt;fullName&lt;/span&gt;: &lt;span class=&quot;hljs-keyword&quot;&gt;string&lt;/span&gt;, &lt;span class=&quot;hljs-attr&quot;&gt;hireDate&lt;/span&gt;: &lt;span class=&quot;hljs-keyword&quot;&gt;string&lt;/span&gt;, &lt;span class=&quot;hljs-attr&quot;&gt;address&lt;/span&gt;: &lt;span class=&quot;hljs-keyword&quot;&gt;string&lt;/span&gt;)&lt;br&gt;+ &amp;lt;&amp;lt;constructor&amp;gt;&amp;gt; &lt;span class=&quot;hljs-title function_ invoke__&quot;&gt;Employee&lt;/span&gt;(&lt;span class=&quot;hljs-attr&quot;&gt;other&lt;/span&gt;: Employee)&lt;br&gt;+ &amp;lt;&amp;lt;constructor&amp;gt;&amp;gt; &lt;span class=&quot;hljs-title function_ invoke__&quot;&gt;Employee&lt;/span&gt;(&lt;span class=&quot;hljs-attr&quot;&gt;other&lt;/span&gt;: Employee&amp;amp;&amp;amp;)&lt;br&gt;+ &amp;lt;&amp;lt;constructor&amp;gt;&amp;gt; &lt;span class=&quot;hljs-title function_ invoke__&quot;&gt;Employee&lt;/span&gt;(&lt;span class=&quot;hljs-attr&quot;&gt;data&lt;/span&gt;: &lt;span class=&quot;hljs-keyword&quot;&gt;string&lt;/span&gt;)&lt;/span&gt;&lt;/div&gt;&lt;div&gt;&lt;span class=&quot;hljs-keyword&quot;&gt;&lt;br&gt;+ &amp;lt;&amp;lt;virtual&amp;gt;&amp;gt; &lt;span class=&quot;hljs-title function_ invoke__&quot;&gt;input&lt;/span&gt;()&lt;br&gt;+ &amp;lt;&amp;lt;virtual&amp;gt;&amp;gt; &lt;span class=&quot;hljs-keyword&quot;&gt;print&lt;/span&gt;() &lt;span class=&quot;hljs-keyword&quot;&gt;const&lt;/span&gt;&lt;br&gt;+ &amp;lt;&amp;lt;pure virtual&amp;gt;&amp;gt; &lt;span class=&quot;hljs-title function_ invoke__&quot;&gt;computeSalary&lt;/span&gt;(): long&lt;/span&gt;&lt;/div&gt;" style="text;strokeColor=none;fillColor=none;align=left;verticalAlign=top;spacingLeft=4;spacingRight=4;overflow=hidden;rotatable=0;points=[[0,0.5],[1,0.5]];portConstraint=eastwest;whiteSpace=wrap;html=1;" parent="TGg97sCdS2oQXF3Zb6yF-1" vertex="1">
          <mxGeometry y="98" width="490" height="142" as="geometry" />
        </mxCell>
        <mxCell id="TGg97sCdS2oQXF3Zb6yF-5" value="&amp;lt;&amp;lt;concrete&amp;gt;&amp;gt; OfficeEmployee      " style="swimlane;fontStyle=1;align=center;verticalAlign=top;childLayout=stackLayout;horizontal=1;startSize=26;horizontalStack=0;resizeParent=1;resizeParentMax=0;resizeLast=0;collapsible=1;marginBottom=0;whiteSpace=wrap;html=1;" parent="1" vertex="1">
          <mxGeometry x="-210" y="400" width="610" height="210" as="geometry" />
        </mxCell>
        <mxCell id="TGg97sCdS2oQXF3Zb6yF-6" value="&lt;span class=&quot;hljs-comment&quot;&gt;- workingDays: int&lt;/span&gt;&lt;br&gt;&lt;span class=&quot;hljs-comment&quot;&gt;- payRatePerDay: const int = 300000&lt;/span&gt;" style="text;strokeColor=none;fillColor=none;align=left;verticalAlign=top;spacingLeft=4;spacingRight=4;overflow=hidden;rotatable=0;points=[[0,0.5],[1,0.5]];portConstraint=eastwest;whiteSpace=wrap;html=1;" parent="TGg97sCdS2oQXF3Zb6yF-5" vertex="1">
          <mxGeometry y="26" width="610" height="34" as="geometry" />
        </mxCell>
        <mxCell id="TGg97sCdS2oQXF3Zb6yF-7" value="" style="line;strokeWidth=1;fillColor=none;align=left;verticalAlign=middle;spacingTop=-1;spacingLeft=3;spacingRight=3;rotatable=0;labelPosition=right;points=[];portConstraint=eastwest;strokeColor=inherit;" parent="TGg97sCdS2oQXF3Zb6yF-5" vertex="1">
          <mxGeometry y="60" width="610" height="8" as="geometry" />
        </mxCell>
        <mxCell id="TGg97sCdS2oQXF3Zb6yF-8" value="+ &amp;lt;&amp;lt;constructor&amp;gt;&amp;gt; &lt;span class=&quot;hljs-title function_ invoke__&quot;&gt;OfficeEmployee&lt;/span&gt;()&lt;br&gt;+ &amp;lt;&amp;lt;constructor&amp;gt;&amp;gt; &lt;span class=&quot;hljs-title function_ invoke__&quot;&gt;OfficeEmployee&lt;/span&gt;(&lt;span class=&quot;hljs-attr&quot;&gt;id&lt;/span&gt;: &lt;span class=&quot;hljs-keyword&quot;&gt;string&lt;/span&gt;, &lt;span class=&quot;hljs-attr&quot;&gt;fullName&lt;/span&gt;: &lt;span class=&quot;hljs-keyword&quot;&gt;string&lt;/span&gt;, &lt;span class=&quot;hljs-attr&quot;&gt;hireDate&lt;/span&gt;: &lt;span class=&quot;hljs-keyword&quot;&gt;string&lt;/span&gt;, &lt;span class=&quot;hljs-attr&quot;&gt;address&lt;/span&gt;: &lt;span class=&quot;hljs-keyword&quot;&gt;string&lt;/span&gt;, &lt;span class=&quot;hljs-attr&quot;&gt;workingDays&lt;/span&gt;: &lt;span class=&quot;hljs-keyword&quot;&gt;int&lt;/span&gt;)&lt;br&gt;+ &amp;lt;&amp;lt;constructor&amp;gt;&amp;gt; &lt;span class=&quot;hljs-title function_ invoke__&quot;&gt;OfficeEmployee&lt;/span&gt;(&lt;span class=&quot;hljs-attr&quot;&gt;other&lt;/span&gt;: OfficeEmployee)&lt;br&gt;+ &amp;lt;&amp;lt;constructor&amp;gt;&amp;gt; &lt;span class=&quot;hljs-title function_ invoke__&quot;&gt;OfficeEmployee&lt;/span&gt;(&lt;span class=&quot;hljs-attr&quot;&gt;other&lt;/span&gt;: OfficeEmployee&amp;amp;&amp;amp;)&lt;br&gt;+ &amp;lt;&amp;lt;constructor&amp;gt;&amp;gt; &lt;span class=&quot;hljs-title function_ invoke__&quot;&gt;OfficeEmployee&lt;/span&gt;(&lt;span class=&quot;hljs-attr&quot;&gt;data&lt;/span&gt;: &lt;span class=&quot;hljs-keyword&quot;&gt;string&lt;/span&gt;)&lt;div&gt;&lt;br&gt;+ &amp;lt;&amp;lt;override&amp;gt;&amp;gt; &lt;span class=&quot;hljs-title function_ invoke__&quot;&gt;input&lt;/span&gt;()&lt;br&gt;+ &amp;lt;&amp;lt;override&amp;gt;&amp;gt; &lt;span class=&quot;hljs-keyword&quot;&gt;print&lt;/span&gt;() &lt;span class=&quot;hljs-keyword&quot;&gt;const&lt;/span&gt;&lt;br&gt;+ &amp;lt;&amp;lt;override&amp;gt;&amp;gt; &lt;span class=&quot;hljs-title function_ invoke__&quot;&gt;computeSalary&lt;/span&gt;() &lt;span class=&quot;hljs-keyword&quot;&gt;const&lt;/span&gt;&lt;/div&gt;" style="text;strokeColor=none;fillColor=none;align=left;verticalAlign=top;spacingLeft=4;spacingRight=4;overflow=hidden;rotatable=0;points=[[0,0.5],[1,0.5]];portConstraint=eastwest;whiteSpace=wrap;html=1;" parent="TGg97sCdS2oQXF3Zb6yF-5" vertex="1">
          <mxGeometry y="68" width="610" height="142" as="geometry" />
        </mxCell>
        <mxCell id="TGg97sCdS2oQXF3Zb6yF-10" value="&amp;lt;&amp;lt;concrete&amp;gt;&amp;gt; Worker      " style="swimlane;fontStyle=1;align=center;verticalAlign=top;childLayout=stackLayout;horizontal=1;startSize=26;horizontalStack=0;resizeParent=1;resizeParentMax=0;resizeLast=0;collapsible=1;marginBottom=0;whiteSpace=wrap;html=1;" parent="1" vertex="1">
          <mxGeometry x="-210" y="150" width="580" height="210" as="geometry" />
        </mxCell>
        <mxCell id="TGg97sCdS2oQXF3Zb6yF-11" value="&lt;span class=&quot;hljs-comment&quot;&gt;- producedItems: int&lt;/span&gt;&lt;br&gt;&lt;span class=&quot;hljs-comment&quot;&gt;- payRatePerItem: const int&lt;/span&gt;" style="text;strokeColor=none;fillColor=none;align=left;verticalAlign=top;spacingLeft=4;spacingRight=4;overflow=hidden;rotatable=0;points=[[0,0.5],[1,0.5]];portConstraint=eastwest;whiteSpace=wrap;html=1;" parent="TGg97sCdS2oQXF3Zb6yF-10" vertex="1">
          <mxGeometry y="26" width="580" height="34" as="geometry" />
        </mxCell>
        <mxCell id="TGg97sCdS2oQXF3Zb6yF-12" value="" style="line;strokeWidth=1;fillColor=none;align=left;verticalAlign=middle;spacingTop=-1;spacingLeft=3;spacingRight=3;rotatable=0;labelPosition=right;points=[];portConstraint=eastwest;strokeColor=inherit;" parent="TGg97sCdS2oQXF3Zb6yF-10" vertex="1">
          <mxGeometry y="60" width="580" height="8" as="geometry" />
        </mxCell>
        <mxCell id="TGg97sCdS2oQXF3Zb6yF-13" value="+ &amp;lt;&amp;lt;constructor&amp;gt;&amp;gt; &lt;span class=&quot;hljs-title function_ invoke__&quot;&gt;Worker&lt;/span&gt;()&lt;br&gt;+ &amp;lt;&amp;lt;constructor&amp;gt;&amp;gt; &lt;span class=&quot;hljs-title function_ invoke__&quot;&gt;Worker&lt;/span&gt;(&lt;span class=&quot;hljs-attr&quot;&gt;id&lt;/span&gt;: &lt;span class=&quot;hljs-keyword&quot;&gt;string&lt;/span&gt;, &lt;span class=&quot;hljs-attr&quot;&gt;fullName&lt;/span&gt;: &lt;span class=&quot;hljs-keyword&quot;&gt;string&lt;/span&gt;, &lt;span class=&quot;hljs-attr&quot;&gt;hireDate&lt;/span&gt;: &lt;span class=&quot;hljs-keyword&quot;&gt;string&lt;/span&gt;, &lt;span class=&quot;hljs-attr&quot;&gt;address&lt;/span&gt;: &lt;span class=&quot;hljs-keyword&quot;&gt;string&lt;/span&gt;, &lt;span class=&quot;hljs-attr&quot;&gt;producedItems&lt;/span&gt;: &lt;span class=&quot;hljs-keyword&quot;&gt;int&lt;/span&gt;)&lt;br&gt;+ &amp;lt;&amp;lt;constructor&amp;gt;&amp;gt; &lt;span class=&quot;hljs-title function_ invoke__&quot;&gt;Worker&lt;/span&gt;(&lt;span class=&quot;hljs-attr&quot;&gt;other&lt;/span&gt;: Worker)&lt;br&gt;+ &amp;lt;&amp;lt;constructor&amp;gt;&amp;gt; &lt;span class=&quot;hljs-title function_ invoke__&quot;&gt;Worker&lt;/span&gt;(&lt;span class=&quot;hljs-attr&quot;&gt;other&lt;/span&gt;: Worker&amp;amp;&amp;amp;)&lt;br&gt;+ &amp;lt;&amp;lt;constructor&amp;gt;&amp;gt; &lt;span class=&quot;hljs-title function_ invoke__&quot;&gt;Worker&lt;/span&gt;(&lt;span class=&quot;hljs-attr&quot;&gt;data&lt;/span&gt;: &lt;span class=&quot;hljs-keyword&quot;&gt;string&lt;/span&gt;)&lt;div&gt;&lt;br&gt;+ &amp;lt;&amp;lt;override&amp;gt;&amp;gt; &lt;span class=&quot;hljs-title function_ invoke__&quot;&gt;input&lt;/span&gt;()&lt;br&gt;+ &amp;lt;&amp;lt;override&amp;gt;&amp;gt; &lt;span class=&quot;hljs-keyword&quot;&gt;print&lt;/span&gt;() &lt;span class=&quot;hljs-keyword&quot;&gt;const&lt;/span&gt;&lt;br&gt;+ &amp;lt;&amp;lt;override&amp;gt;&amp;gt; &lt;span class=&quot;hljs-title function_ invoke__&quot;&gt;computeSalary&lt;/span&gt;() &lt;span class=&quot;hljs-keyword&quot;&gt;const&lt;/span&gt;&lt;/div&gt;" style="text;strokeColor=none;fillColor=none;align=left;verticalAlign=top;spacingLeft=4;spacingRight=4;overflow=hidden;rotatable=0;points=[[0,0.5],[1,0.5]];portConstraint=eastwest;whiteSpace=wrap;html=1;" parent="TGg97sCdS2oQXF3Zb6yF-10" vertex="1">
          <mxGeometry y="68" width="580" height="142" as="geometry" />
        </mxCell>
        <mxCell id="TGg97sCdS2oQXF3Zb6yF-14" value="" style="endArrow=block;endSize=16;endFill=0;html=1;rounded=0;exitX=-0.002;exitY=0.263;exitDx=0;exitDy=0;exitPerimeter=0;edgeStyle=orthogonalEdgeStyle;" parent="1" source="TGg97sCdS2oQXF3Zb6yF-13" edge="1">
          <mxGeometry x="0.0014" width="160" relative="1" as="geometry">
            <mxPoint x="-400" y="240" as="sourcePoint" />
            <mxPoint x="-310" y="400" as="targetPoint" />
            <mxPoint as="offset" />
            <Array as="points">
              <mxPoint x="-230" y="255" />
              <mxPoint x="-230" y="400" />
              <mxPoint x="-310" y="400" />
            </Array>
          </mxGeometry>
        </mxCell>
        <mxCell id="2CK58GjSMjasro4L5q2h-7" value="Extend" style="edgeLabel;html=1;align=center;verticalAlign=middle;resizable=0;points=[];fontSize=12;" parent="TGg97sCdS2oQXF3Zb6yF-14" vertex="1" connectable="0">
          <mxGeometry x="0.6466" y="-1" relative="1" as="geometry">
            <mxPoint x="7" y="1" as="offset" />
          </mxGeometry>
        </mxCell>
        <mxCell id="2CK58GjSMjasro4L5q2h-1" value="Company&amp;nbsp;" style="swimlane;fontStyle=1;align=center;verticalAlign=top;childLayout=stackLayout;horizontal=1;startSize=26;horizontalStack=0;resizeParent=1;resizeParentMax=0;resizeLast=0;collapsible=1;marginBottom=0;whiteSpace=wrap;html=1;" parent="1" vertex="1">
          <mxGeometry x="-665" y="60" width="220" height="160" as="geometry" />
        </mxCell>
        <mxCell id="2CK58GjSMjasro4L5q2h-2" value="&lt;span class=&quot;hljs-section&quot;&gt;- employees: vector&lt;span class=&quot;xml&quot;&gt;&amp;lt;Employee*&amp;gt;&lt;/span&gt;&lt;/span&gt;" style="text;strokeColor=none;fillColor=none;align=left;verticalAlign=top;spacingLeft=4;spacingRight=4;overflow=hidden;rotatable=0;points=[[0,0.5],[1,0.5]];portConstraint=eastwest;whiteSpace=wrap;html=1;" parent="2CK58GjSMjasro4L5q2h-1" vertex="1">
          <mxGeometry y="26" width="220" height="24" as="geometry" />
        </mxCell>
        <mxCell id="2CK58GjSMjasro4L5q2h-3" value="" style="line;strokeWidth=1;fillColor=none;align=left;verticalAlign=middle;spacingTop=-1;spacingLeft=3;spacingRight=3;rotatable=0;labelPosition=right;points=[];portConstraint=eastwest;strokeColor=inherit;" parent="2CK58GjSMjasro4L5q2h-1" vertex="1">
          <mxGeometry y="50" width="220" height="8" as="geometry" />
        </mxCell>
        <mxCell id="2CK58GjSMjasro4L5q2h-4" value="&lt;span class=&quot;hljs-bullet&quot;&gt;+&lt;/span&gt; &amp;lt;&lt;span class=&quot;xml&quot;&gt;&amp;lt;&lt;span class=&quot;hljs-name&quot;&gt;destructor&lt;/span&gt;&amp;gt;&lt;/span&gt;&amp;gt; ~Company()&lt;div&gt;&lt;br&gt;&lt;span class=&quot;hljs-bullet&quot;&gt;+&lt;/span&gt; inputEmployees()&lt;br&gt;&lt;span class=&quot;hljs-bullet&quot;&gt;+&lt;/span&gt; printAllEmployees() const&lt;br&gt;&lt;span class=&quot;hljs-bullet&quot;&gt;+&lt;/span&gt; computeTotalSalary() const&lt;br&gt;&lt;span class=&quot;hljs-bullet&quot;&gt;+&lt;/span&gt; printHighestSalaryEmployees() const&lt;/div&gt;" style="text;strokeColor=none;fillColor=none;align=left;verticalAlign=top;spacingLeft=4;spacingRight=4;overflow=hidden;rotatable=0;points=[[0,0.5],[1,0.5]];portConstraint=eastwest;whiteSpace=wrap;html=1;" parent="2CK58GjSMjasro4L5q2h-1" vertex="1">
          <mxGeometry y="58" width="220" height="102" as="geometry" />
        </mxCell>
        <mxCell id="2CK58GjSMjasro4L5q2h-5" value="" style="endArrow=none;html=1;rounded=0;fontSize=12;startSize=8;endSize=8;entryX=0;entryY=0.5;entryDx=0;entryDy=0;edgeStyle=orthogonalEdgeStyle;" parent="1" target="TGg97sCdS2oQXF3Zb6yF-8" edge="1">
          <mxGeometry width="50" height="50" relative="1" as="geometry">
            <mxPoint x="-230" y="400" as="sourcePoint" />
            <mxPoint x="-330" y="320" as="targetPoint" />
          </mxGeometry>
        </mxCell>
        <mxCell id="2CK58GjSMjasro4L5q2h-8" value="" style="endArrow=diamondThin;endFill=1;endSize=24;html=1;rounded=0;fontSize=12;curved=1;entryX=0.495;entryY=1.003;entryDx=0;entryDy=0;entryPerimeter=0;exitX=0.5;exitY=0;exitDx=0;exitDy=0;" parent="1" source="TGg97sCdS2oQXF3Zb6yF-1" target="2CK58GjSMjasro4L5q2h-4" edge="1">
          <mxGeometry width="160" relative="1" as="geometry">
            <mxPoint x="-440" y="220" as="sourcePoint" />
            <mxPoint x="-280" y="220" as="targetPoint" />
          </mxGeometry>
        </mxCell>
      </root>
    </mxGraphModel>
  </diagram>
  <diagram id="2UGJMH584vD-zmC2fBh0" name="Assignment02">
    <mxGraphModel dx="643" dy="569" grid="1" gridSize="10" guides="1" tooltips="1" connect="1" arrows="1" fold="1" page="1" pageScale="1" pageWidth="850" pageHeight="1100" math="0" shadow="0">
      <root>
        <mxCell id="0" />
        <mxCell id="1" parent="0" />
      </root>
    </mxGraphModel>
  </diagram>
  <diagram id="8CGwNh6bJqncygo-UwI7" name="Assignment03">
    <mxGraphModel dx="2148" dy="1136" grid="1" gridSize="10" guides="1" tooltips="1" connect="1" arrows="1" fold="1" page="0" pageScale="1" pageWidth="850" pageHeight="1100" math="0" shadow="0">
      <root>
        <mxCell id="0" />
        <mxCell id="1" parent="0" />
        <mxCell id="PLfUyFhFXkoEnL9eVneB-91" value="" style="rounded=0;whiteSpace=wrap;html=1;" vertex="1" parent="1">
          <mxGeometry x="-220" y="190" width="1500" height="620" as="geometry" />
        </mxCell>
        <mxCell id="le8_9C_Pmi_Kjwc4Gm1s-1" value="&amp;lt;&amp;lt;abstract&amp;gt;&amp;gt;&amp;nbsp;&lt;strong&gt;Gatekeeper&lt;/strong&gt;" style="swimlane;fontStyle=1;align=center;verticalAlign=top;childLayout=stackLayout;horizontal=1;startSize=26;horizontalStack=0;resizeParent=1;resizeParentMax=0;resizeLast=0;collapsible=1;marginBottom=0;whiteSpace=wrap;html=1;" parent="1" vertex="1">
          <mxGeometry x="1080" y="374" width="190" height="52" as="geometry" />
        </mxCell>
        <mxCell id="le8_9C_Pmi_Kjwc4Gm1s-4" value="&lt;div&gt;+ &amp;lt;&amp;lt;pure virtual&amp;gt;&amp;gt; input(): void&lt;/div&gt;" style="text;strokeColor=none;fillColor=none;align=left;verticalAlign=top;spacingLeft=4;spacingRight=4;overflow=hidden;rotatable=0;points=[[0,0.5],[1,0.5]];portConstraint=eastwest;whiteSpace=wrap;html=1;" parent="le8_9C_Pmi_Kjwc4Gm1s-1" vertex="1">
          <mxGeometry y="26" width="190" height="26" as="geometry" />
        </mxCell>
        <mxCell id="PLfUyFhFXkoEnL9eVneB-3" value="&amp;lt;&amp;lt;concrete&amp;gt;&amp;gt; Merchant&amp;nbsp;" style="swimlane;fontStyle=1;align=center;verticalAlign=top;childLayout=stackLayout;horizontal=1;startSize=30;horizontalStack=0;resizeParent=1;resizeParentMax=0;resizeLast=0;collapsible=1;marginBottom=0;whiteSpace=wrap;html=1;" vertex="1" parent="1">
          <mxGeometry x="800" y="198" width="160" height="114" as="geometry" />
        </mxCell>
        <mxCell id="PLfUyFhFXkoEnL9eVneB-4" value="&lt;span&gt;- &lt;/span&gt;&lt;span&gt;unitPrice: &lt;/span&gt;&lt;span&gt;int&lt;br/&gt;&lt;/span&gt;&lt;span&gt;- &lt;/span&gt;&lt;span&gt;quantity: &lt;/span&gt;&lt;span&gt;int&lt;/span&gt;" style="text;strokeColor=none;fillColor=none;align=left;verticalAlign=top;spacingLeft=4;spacingRight=4;overflow=hidden;rotatable=0;points=[[0,0.5],[1,0.5]];portConstraint=eastwest;whiteSpace=wrap;html=1;" vertex="1" parent="PLfUyFhFXkoEnL9eVneB-3">
          <mxGeometry y="30" width="160" height="34" as="geometry" />
        </mxCell>
        <mxCell id="PLfUyFhFXkoEnL9eVneB-5" value="" style="line;strokeWidth=1;fillColor=none;align=left;verticalAlign=middle;spacingTop=-1;spacingLeft=3;spacingRight=3;rotatable=0;labelPosition=right;points=[];portConstraint=eastwest;strokeColor=inherit;" vertex="1" parent="PLfUyFhFXkoEnL9eVneB-3">
          <mxGeometry y="64" width="160" height="8" as="geometry" />
        </mxCell>
        <mxCell id="PLfUyFhFXkoEnL9eVneB-6" value="&lt;span&gt;+&amp;nbsp;&lt;/span&gt;&amp;lt;&amp;lt;override&amp;gt;&amp;gt;&lt;span&gt;&amp;nbsp;&lt;/span&gt;&lt;span&gt;input(): &lt;/span&gt;&lt;span&gt;void&lt;br&gt;&lt;/span&gt;&lt;span&gt;+ &lt;/span&gt;&lt;span&gt;getCost(): &lt;/span&gt;&lt;span&gt;int&lt;/span&gt;" style="text;strokeColor=none;fillColor=none;align=left;verticalAlign=top;spacingLeft=4;spacingRight=4;overflow=hidden;rotatable=0;points=[[0,0.5],[1,0.5]];portConstraint=eastwest;whiteSpace=wrap;html=1;" vertex="1" parent="PLfUyFhFXkoEnL9eVneB-3">
          <mxGeometry y="72" width="160" height="42" as="geometry" />
        </mxCell>
        <mxCell id="PLfUyFhFXkoEnL9eVneB-8" value="&lt;span&gt;&amp;lt;&amp;lt;concrete&amp;gt;&amp;gt; &lt;/span&gt;&lt;span&gt;Sage&amp;nbsp;&lt;/span&gt;" style="swimlane;fontStyle=1;align=center;verticalAlign=top;childLayout=stackLayout;horizontal=1;startSize=30;horizontalStack=0;resizeParent=1;resizeParentMax=0;resizeLast=0;collapsible=1;marginBottom=0;whiteSpace=wrap;html=1;" vertex="1" parent="1">
          <mxGeometry x="800" y="350" width="160" height="100" as="geometry" />
        </mxCell>
        <mxCell id="PLfUyFhFXkoEnL9eVneB-9" value="&lt;span&gt;- &lt;/span&gt;&lt;span&gt;intelligenceLevel: &lt;/span&gt;&lt;span&gt;int&lt;/span&gt;" style="text;strokeColor=none;fillColor=none;align=left;verticalAlign=top;spacingLeft=4;spacingRight=4;overflow=hidden;rotatable=0;points=[[0,0.5],[1,0.5]];portConstraint=eastwest;whiteSpace=wrap;html=1;" vertex="1" parent="PLfUyFhFXkoEnL9eVneB-8">
          <mxGeometry y="30" width="160" height="20" as="geometry" />
        </mxCell>
        <mxCell id="PLfUyFhFXkoEnL9eVneB-10" value="" style="line;strokeWidth=1;fillColor=none;align=left;verticalAlign=middle;spacingTop=-1;spacingLeft=3;spacingRight=3;rotatable=0;labelPosition=right;points=[];portConstraint=eastwest;strokeColor=inherit;" vertex="1" parent="PLfUyFhFXkoEnL9eVneB-8">
          <mxGeometry y="50" width="160" height="8" as="geometry" />
        </mxCell>
        <mxCell id="PLfUyFhFXkoEnL9eVneB-11" value="&lt;span&gt;+&amp;nbsp;&lt;/span&gt;&amp;lt;&amp;lt;override&amp;gt;&amp;gt;&amp;nbsp;&lt;span&gt;input(): &lt;/span&gt;&lt;span&gt;void&lt;br&gt;&lt;/span&gt;&lt;span&gt;+ &lt;/span&gt;&lt;span&gt;getIntelligenceLevel(): &lt;/span&gt;&lt;span&gt;int&lt;/span&gt;" style="text;strokeColor=none;fillColor=none;align=left;verticalAlign=top;spacingLeft=4;spacingRight=4;overflow=hidden;rotatable=0;points=[[0,0.5],[1,0.5]];portConstraint=eastwest;whiteSpace=wrap;html=1;" vertex="1" parent="PLfUyFhFXkoEnL9eVneB-8">
          <mxGeometry y="58" width="160" height="42" as="geometry" />
        </mxCell>
        <mxCell id="PLfUyFhFXkoEnL9eVneB-13" value="&lt;span&gt;&amp;lt;&amp;lt;concrete&amp;gt;&amp;gt;&amp;nbsp;&lt;/span&gt;Warrior" style="swimlane;fontStyle=1;align=center;verticalAlign=top;childLayout=stackLayout;horizontal=1;startSize=30;horizontalStack=0;resizeParent=1;resizeParentMax=0;resizeLast=0;collapsible=1;marginBottom=0;whiteSpace=wrap;html=1;" vertex="1" parent="1">
          <mxGeometry x="800" y="495" width="160" height="100" as="geometry" />
        </mxCell>
        <mxCell id="PLfUyFhFXkoEnL9eVneB-14" value="&lt;span&gt;- &lt;/span&gt;&lt;span&gt;strengthLevel: &lt;/span&gt;&lt;span&gt;int&amp;nbsp;&lt;/span&gt;" style="text;strokeColor=none;fillColor=none;align=left;verticalAlign=top;spacingLeft=4;spacingRight=4;overflow=hidden;rotatable=0;points=[[0,0.5],[1,0.5]];portConstraint=eastwest;whiteSpace=wrap;html=1;" vertex="1" parent="PLfUyFhFXkoEnL9eVneB-13">
          <mxGeometry y="30" width="160" height="20" as="geometry" />
        </mxCell>
        <mxCell id="PLfUyFhFXkoEnL9eVneB-15" value="" style="line;strokeWidth=1;fillColor=none;align=left;verticalAlign=middle;spacingTop=-1;spacingLeft=3;spacingRight=3;rotatable=0;labelPosition=right;points=[];portConstraint=eastwest;strokeColor=inherit;" vertex="1" parent="PLfUyFhFXkoEnL9eVneB-13">
          <mxGeometry y="50" width="160" height="8" as="geometry" />
        </mxCell>
        <mxCell id="PLfUyFhFXkoEnL9eVneB-16" value="&lt;span&gt;+&amp;nbsp;&lt;/span&gt;&amp;lt;&amp;lt;override&amp;gt;&amp;gt;&amp;nbsp;&lt;span&gt;input(): &lt;/span&gt;&lt;span&gt;void&lt;br&gt;&lt;/span&gt;&lt;span&gt;+ &lt;/span&gt;&lt;span&gt;getStrengthLevel(): &lt;/span&gt;&lt;span&gt;int&lt;/span&gt;" style="text;strokeColor=none;fillColor=none;align=left;verticalAlign=top;spacingLeft=4;spacingRight=4;overflow=hidden;rotatable=0;points=[[0,0.5],[1,0.5]];portConstraint=eastwest;whiteSpace=wrap;html=1;" vertex="1" parent="PLfUyFhFXkoEnL9eVneB-13">
          <mxGeometry y="58" width="160" height="42" as="geometry" />
        </mxCell>
        <mxCell id="PLfUyFhFXkoEnL9eVneB-17" value="&amp;lt;&amp;lt;abstract&amp;gt;&amp;gt; Gate" style="swimlane;fontStyle=1;align=center;verticalAlign=top;childLayout=stackLayout;horizontal=1;startSize=26;horizontalStack=0;resizeParent=1;resizeParentMax=0;resizeLast=0;collapsible=1;marginBottom=0;whiteSpace=wrap;html=1;" vertex="1" parent="1">
          <mxGeometry x="-210" y="360" width="430" height="80" as="geometry" />
        </mxCell>
        <mxCell id="PLfUyFhFXkoEnL9eVneB-18" value="&lt;span&gt;+ &lt;/span&gt;&lt;span&gt;&amp;lt;&amp;lt;pure &lt;/span&gt;&lt;span&gt;virtual&amp;gt;&amp;gt; &lt;/span&gt;&lt;span&gt;input(): &lt;/span&gt;&lt;span&gt;void&lt;br/&gt;&lt;/span&gt;&lt;span&gt;+ &lt;/span&gt;&lt;span&gt;&amp;lt;&amp;lt;pure &lt;/span&gt;&lt;span&gt;virtual&amp;gt;&amp;gt; &lt;/span&gt;&lt;span&gt;output(): &lt;/span&gt;&lt;span&gt;void&lt;br/&gt;&lt;/span&gt;&lt;span&gt;+ &lt;/span&gt;&lt;span&gt;&amp;lt;&amp;lt;pure &lt;/span&gt;&lt;span&gt;virtual&amp;gt;&amp;gt; &lt;/span&gt;&lt;span&gt;canPass(money: &lt;/span&gt;&lt;span&gt;int &lt;/span&gt;&lt;span&gt;&amp;amp;, &lt;/span&gt;&lt;span&gt;IQ: &lt;/span&gt;&lt;span&gt;const &lt;/span&gt;&lt;span&gt;int &lt;/span&gt;&lt;span&gt;&amp;amp;, &lt;/span&gt;&lt;span&gt;strength: &lt;/span&gt;&lt;span&gt;int &lt;/span&gt;&lt;span&gt;&amp;amp;): &lt;/span&gt;&lt;span&gt;bool&lt;/span&gt;" style="text;strokeColor=none;fillColor=none;align=left;verticalAlign=top;spacingLeft=4;spacingRight=4;overflow=hidden;rotatable=0;points=[[0,0.5],[1,0.5]];portConstraint=eastwest;whiteSpace=wrap;html=1;" vertex="1" parent="PLfUyFhFXkoEnL9eVneB-17">
          <mxGeometry y="26" width="430" height="54" as="geometry" />
        </mxCell>
        <mxCell id="PLfUyFhFXkoEnL9eVneB-21" value="&lt;span&gt;&amp;lt;&amp;lt;concrete&amp;gt;&amp;gt; &lt;/span&gt;&lt;span&gt;BusinessGate&amp;nbsp;&lt;/span&gt;" style="swimlane;fontStyle=1;align=center;verticalAlign=top;childLayout=stackLayout;horizontal=1;startSize=30;horizontalStack=0;resizeParent=1;resizeParentMax=0;resizeLast=0;collapsible=1;marginBottom=0;whiteSpace=wrap;html=1;" vertex="1" parent="1">
          <mxGeometry x="320" y="200" width="410" height="110" as="geometry" />
        </mxCell>
        <mxCell id="PLfUyFhFXkoEnL9eVneB-22" value="&lt;span&gt;- &lt;/span&gt;&lt;span&gt;merchant: &lt;/span&gt;&lt;span&gt;Merchant&amp;nbsp;&lt;/span&gt;" style="text;strokeColor=none;fillColor=none;align=left;verticalAlign=top;spacingLeft=4;spacingRight=4;overflow=hidden;rotatable=0;points=[[0,0.5],[1,0.5]];portConstraint=eastwest;whiteSpace=wrap;html=1;" vertex="1" parent="PLfUyFhFXkoEnL9eVneB-21">
          <mxGeometry y="30" width="410" height="20" as="geometry" />
        </mxCell>
        <mxCell id="PLfUyFhFXkoEnL9eVneB-23" value="" style="line;strokeWidth=1;fillColor=none;align=left;verticalAlign=middle;spacingTop=-1;spacingLeft=3;spacingRight=3;rotatable=0;labelPosition=right;points=[];portConstraint=eastwest;strokeColor=inherit;" vertex="1" parent="PLfUyFhFXkoEnL9eVneB-21">
          <mxGeometry y="50" width="410" height="8" as="geometry" />
        </mxCell>
        <mxCell id="PLfUyFhFXkoEnL9eVneB-24" value="&lt;span&gt;+&amp;nbsp;&lt;/span&gt;&amp;lt;&amp;lt;override&amp;gt;&amp;gt;&lt;span&gt;&amp;nbsp;&lt;/span&gt;&lt;span&gt;input(): &lt;/span&gt;&lt;span&gt;void&lt;br&gt;&lt;/span&gt;&lt;span&gt;+&amp;nbsp;&lt;/span&gt;&amp;lt;&amp;lt;override&amp;gt;&amp;gt;&lt;span&gt;&amp;nbsp;&lt;/span&gt;&lt;span&gt;output(): &lt;/span&gt;&lt;span&gt;void&lt;br&gt;&lt;/span&gt;&lt;span&gt;+&amp;nbsp;&lt;/span&gt;&amp;lt;&amp;lt;override&amp;gt;&amp;gt;&lt;span&gt;&amp;nbsp;&lt;/span&gt;&lt;span&gt;canPass(money: &lt;/span&gt;&lt;span&gt;int &lt;/span&gt;&lt;span&gt;&amp;amp;, &lt;/span&gt;&lt;span&gt;IQ: &lt;/span&gt;&lt;span&gt;const &lt;/span&gt;&lt;span&gt;int &lt;/span&gt;&lt;span&gt;&amp;amp;, &lt;/span&gt;&lt;span&gt;strength: &lt;/span&gt;&lt;span&gt;int &lt;/span&gt;&lt;span&gt;&amp;amp;): &lt;/span&gt;&lt;span&gt;bool&lt;/span&gt;" style="text;strokeColor=none;fillColor=none;align=left;verticalAlign=top;spacingLeft=4;spacingRight=4;overflow=hidden;rotatable=0;points=[[0,0.5],[1,0.5]];portConstraint=eastwest;whiteSpace=wrap;html=1;" vertex="1" parent="PLfUyFhFXkoEnL9eVneB-21">
          <mxGeometry y="58" width="410" height="52" as="geometry" />
        </mxCell>
        <mxCell id="PLfUyFhFXkoEnL9eVneB-25" value="&lt;span&gt;&amp;lt;&amp;lt;concrete&amp;gt;&amp;gt;&amp;nbsp;&lt;/span&gt;AcademicGate" style="swimlane;fontStyle=1;align=center;verticalAlign=top;childLayout=stackLayout;horizontal=1;startSize=30;horizontalStack=0;resizeParent=1;resizeParentMax=0;resizeLast=0;collapsible=1;marginBottom=0;whiteSpace=wrap;html=1;" vertex="1" parent="1">
          <mxGeometry x="320" y="345" width="410" height="110" as="geometry" />
        </mxCell>
        <mxCell id="PLfUyFhFXkoEnL9eVneB-26" value="&lt;span&gt;- &lt;/span&gt;&lt;span&gt;sage: &lt;/span&gt;&lt;span&gt;Sage&amp;nbsp;&lt;/span&gt;" style="text;strokeColor=none;fillColor=none;align=left;verticalAlign=top;spacingLeft=4;spacingRight=4;overflow=hidden;rotatable=0;points=[[0,0.5],[1,0.5]];portConstraint=eastwest;whiteSpace=wrap;html=1;" vertex="1" parent="PLfUyFhFXkoEnL9eVneB-25">
          <mxGeometry y="30" width="410" height="20" as="geometry" />
        </mxCell>
        <mxCell id="PLfUyFhFXkoEnL9eVneB-27" value="" style="line;strokeWidth=1;fillColor=none;align=left;verticalAlign=middle;spacingTop=-1;spacingLeft=3;spacingRight=3;rotatable=0;labelPosition=right;points=[];portConstraint=eastwest;strokeColor=inherit;" vertex="1" parent="PLfUyFhFXkoEnL9eVneB-25">
          <mxGeometry y="50" width="410" height="8" as="geometry" />
        </mxCell>
        <mxCell id="PLfUyFhFXkoEnL9eVneB-28" value="+&amp;nbsp;&amp;lt;&amp;lt;override&amp;gt;&amp;gt;&amp;nbsp;input():&amp;nbsp;void&lt;br&gt;+&amp;nbsp;&amp;lt;&amp;lt;override&amp;gt;&amp;gt;&amp;nbsp;output():&amp;nbsp;void&lt;br&gt;+&amp;nbsp;&amp;lt;&amp;lt;override&amp;gt;&amp;gt;&amp;nbsp;canPass(money:&amp;nbsp;int&amp;nbsp;&amp;amp;,&amp;nbsp;IQ:&amp;nbsp;const&amp;nbsp;int&amp;nbsp;&amp;amp;,&amp;nbsp;strength:&amp;nbsp;int&amp;nbsp;&amp;amp;):&amp;nbsp;bool" style="text;strokeColor=none;fillColor=none;align=left;verticalAlign=top;spacingLeft=4;spacingRight=4;overflow=hidden;rotatable=0;points=[[0,0.5],[1,0.5]];portConstraint=eastwest;whiteSpace=wrap;html=1;" vertex="1" parent="PLfUyFhFXkoEnL9eVneB-25">
          <mxGeometry y="58" width="410" height="52" as="geometry" />
        </mxCell>
        <mxCell id="PLfUyFhFXkoEnL9eVneB-29" value="&lt;span&gt;&amp;lt;&amp;lt;concrete&amp;gt;&amp;gt;&amp;nbsp;&lt;/span&gt;PowerGate" style="swimlane;fontStyle=1;align=center;verticalAlign=top;childLayout=stackLayout;horizontal=1;startSize=30;horizontalStack=0;resizeParent=1;resizeParentMax=0;resizeLast=0;collapsible=1;marginBottom=0;whiteSpace=wrap;html=1;" vertex="1" parent="1">
          <mxGeometry x="320" y="490" width="410" height="110" as="geometry" />
        </mxCell>
        <mxCell id="PLfUyFhFXkoEnL9eVneB-30" value="&lt;span&gt;- &lt;/span&gt;&lt;span&gt;warrior: &lt;/span&gt;&lt;span&gt;Warrior&amp;nbsp;&lt;/span&gt;" style="text;strokeColor=none;fillColor=none;align=left;verticalAlign=top;spacingLeft=4;spacingRight=4;overflow=hidden;rotatable=0;points=[[0,0.5],[1,0.5]];portConstraint=eastwest;whiteSpace=wrap;html=1;" vertex="1" parent="PLfUyFhFXkoEnL9eVneB-29">
          <mxGeometry y="30" width="410" height="20" as="geometry" />
        </mxCell>
        <mxCell id="PLfUyFhFXkoEnL9eVneB-31" value="" style="line;strokeWidth=1;fillColor=none;align=left;verticalAlign=middle;spacingTop=-1;spacingLeft=3;spacingRight=3;rotatable=0;labelPosition=right;points=[];portConstraint=eastwest;strokeColor=inherit;" vertex="1" parent="PLfUyFhFXkoEnL9eVneB-29">
          <mxGeometry y="50" width="410" height="8" as="geometry" />
        </mxCell>
        <mxCell id="PLfUyFhFXkoEnL9eVneB-32" value="+&amp;nbsp;&amp;lt;&amp;lt;override&amp;gt;&amp;gt;&amp;nbsp;input():&amp;nbsp;void&lt;br&gt;+&amp;nbsp;&amp;lt;&amp;lt;override&amp;gt;&amp;gt;&amp;nbsp;output():&amp;nbsp;void&lt;br&gt;+&amp;nbsp;&amp;lt;&amp;lt;override&amp;gt;&amp;gt;&amp;nbsp;canPass(money:&amp;nbsp;int&amp;nbsp;&amp;amp;,&amp;nbsp;IQ:&amp;nbsp;const&amp;nbsp;int&amp;nbsp;&amp;amp;,&amp;nbsp;strength:&amp;nbsp;int&amp;nbsp;&amp;amp;):&amp;nbsp;bool" style="text;strokeColor=none;fillColor=none;align=left;verticalAlign=top;spacingLeft=4;spacingRight=4;overflow=hidden;rotatable=0;points=[[0,0.5],[1,0.5]];portConstraint=eastwest;whiteSpace=wrap;html=1;" vertex="1" parent="PLfUyFhFXkoEnL9eVneB-29">
          <mxGeometry y="58" width="410" height="52" as="geometry" />
        </mxCell>
        <mxCell id="PLfUyFhFXkoEnL9eVneB-33" value="Castle" style="swimlane;fontStyle=1;align=center;verticalAlign=top;childLayout=stackLayout;horizontal=1;startSize=30;horizontalStack=0;resizeParent=1;resizeParentMax=0;resizeLast=0;collapsible=1;marginBottom=0;whiteSpace=wrap;html=1;" vertex="1" parent="1">
          <mxGeometry x="-80" y="520" width="170" height="116" as="geometry" />
        </mxCell>
        <mxCell id="PLfUyFhFXkoEnL9eVneB-34" value="&lt;span&gt;- &lt;/span&gt;&lt;span&gt;gates: &lt;/span&gt;&lt;span&gt;vector&amp;lt;Gate*&amp;gt;&amp;nbsp;&lt;/span&gt;" style="text;strokeColor=none;fillColor=none;align=left;verticalAlign=top;spacingLeft=4;spacingRight=4;overflow=hidden;rotatable=0;points=[[0,0.5],[1,0.5]];portConstraint=eastwest;whiteSpace=wrap;html=1;" vertex="1" parent="PLfUyFhFXkoEnL9eVneB-33">
          <mxGeometry y="30" width="170" height="20" as="geometry" />
        </mxCell>
        <mxCell id="PLfUyFhFXkoEnL9eVneB-35" value="" style="line;strokeWidth=1;fillColor=none;align=left;verticalAlign=middle;spacingTop=-1;spacingLeft=3;spacingRight=3;rotatable=0;labelPosition=right;points=[];portConstraint=eastwest;strokeColor=inherit;" vertex="1" parent="PLfUyFhFXkoEnL9eVneB-33">
          <mxGeometry y="50" width="170" height="8" as="geometry" />
        </mxCell>
        <mxCell id="PLfUyFhFXkoEnL9eVneB-36" value="&lt;span&gt;+ &lt;/span&gt;&lt;span&gt;~Castle(): &lt;/span&gt;&lt;span&gt;void&lt;br/&gt;&lt;/span&gt;&lt;span&gt;+ &lt;/span&gt;&lt;span&gt;input(): &lt;/span&gt;&lt;span&gt;void&lt;br/&gt;&lt;/span&gt;&lt;span&gt;+ &lt;/span&gt;&lt;span&gt;getGates(): &lt;/span&gt;&lt;span&gt;vector&amp;lt;Gate*&amp;gt;&lt;/span&gt;" style="text;strokeColor=none;fillColor=none;align=left;verticalAlign=top;spacingLeft=4;spacingRight=4;overflow=hidden;rotatable=0;points=[[0,0.5],[1,0.5]];portConstraint=eastwest;whiteSpace=wrap;html=1;" vertex="1" parent="PLfUyFhFXkoEnL9eVneB-33">
          <mxGeometry y="58" width="170" height="58" as="geometry" />
        </mxCell>
        <mxCell id="PLfUyFhFXkoEnL9eVneB-37" value="Prince" style="swimlane;fontStyle=1;align=center;verticalAlign=top;childLayout=stackLayout;horizontal=1;startSize=30;horizontalStack=0;resizeParent=1;resizeParentMax=0;resizeLast=0;collapsible=1;marginBottom=0;whiteSpace=wrap;html=1;" vertex="1" parent="1">
          <mxGeometry x="360" y="640" width="290" height="160" as="geometry" />
        </mxCell>
        <mxCell id="PLfUyFhFXkoEnL9eVneB-38" value="&lt;span&gt;- &lt;/span&gt;&lt;span&gt;money: &lt;/span&gt;&lt;span&gt;int&lt;br/&gt;&lt;/span&gt;&lt;span&gt;- &lt;/span&gt;&lt;span&gt;IQLevel: &lt;/span&gt;&lt;span&gt;int&lt;br/&gt;&lt;/span&gt;&lt;span&gt;- &lt;/span&gt;&lt;span&gt;strengthLevel: &lt;/span&gt;&lt;span&gt;int&lt;/span&gt;" style="text;strokeColor=none;fillColor=none;align=left;verticalAlign=top;spacingLeft=4;spacingRight=4;overflow=hidden;rotatable=0;points=[[0,0.5],[1,0.5]];portConstraint=eastwest;whiteSpace=wrap;html=1;" vertex="1" parent="PLfUyFhFXkoEnL9eVneB-37">
          <mxGeometry y="30" width="290" height="50" as="geometry" />
        </mxCell>
        <mxCell id="PLfUyFhFXkoEnL9eVneB-39" value="" style="line;strokeWidth=1;fillColor=none;align=left;verticalAlign=middle;spacingTop=-1;spacingLeft=3;spacingRight=3;rotatable=0;labelPosition=right;points=[];portConstraint=eastwest;strokeColor=inherit;" vertex="1" parent="PLfUyFhFXkoEnL9eVneB-37">
          <mxGeometry y="80" width="290" height="8" as="geometry" />
        </mxCell>
        <mxCell id="PLfUyFhFXkoEnL9eVneB-40" value="&lt;span&gt;+ &lt;/span&gt;&lt;span&gt;Prince(): &lt;/span&gt;&lt;span&gt;void&lt;br&gt;&lt;/span&gt;&lt;span&gt;+ &lt;/span&gt;&lt;span&gt;input(): &lt;/span&gt;&lt;span&gt;void&lt;br&gt;&lt;/span&gt;&lt;span&gt;+ &lt;/span&gt;&lt;span&gt;output() &lt;/span&gt;&lt;span&gt;const: &lt;/span&gt;&lt;span&gt;void&lt;br&gt;&lt;/span&gt;&lt;span&gt;+ &lt;/span&gt;&lt;span&gt;canRescue(gateCount: &lt;/span&gt;&lt;span&gt;int &lt;/span&gt;&lt;span&gt;&amp;amp;, castle: Castle&lt;/span&gt;&lt;span&gt;): &lt;/span&gt;&lt;span&gt;bool&lt;/span&gt;" style="text;strokeColor=none;fillColor=none;align=left;verticalAlign=top;spacingLeft=4;spacingRight=4;overflow=hidden;rotatable=0;points=[[0,0.5],[1,0.5]];portConstraint=eastwest;whiteSpace=wrap;html=1;" vertex="1" parent="PLfUyFhFXkoEnL9eVneB-37">
          <mxGeometry y="88" width="290" height="72" as="geometry" />
        </mxCell>
        <mxCell id="PLfUyFhFXkoEnL9eVneB-78" value="Extends" style="endArrow=block;endSize=16;endFill=0;html=1;rounded=0;fontSize=12;curved=1;entryX=0;entryY=0.5;entryDx=0;entryDy=0;exitX=1;exitY=0.5;exitDx=0;exitDy=0;" edge="1" parent="1" source="PLfUyFhFXkoEnL9eVneB-8" target="le8_9C_Pmi_Kjwc4Gm1s-1">
          <mxGeometry x="0.1667" width="160" relative="1" as="geometry">
            <mxPoint x="1020" y="330" as="sourcePoint" />
            <mxPoint x="1180" y="330" as="targetPoint" />
            <mxPoint as="offset" />
          </mxGeometry>
        </mxCell>
        <mxCell id="PLfUyFhFXkoEnL9eVneB-79" value="" style="endArrow=none;html=1;rounded=0;fontSize=12;startSize=8;endSize=8;entryX=1;entryY=0.5;entryDx=0;entryDy=0;edgeStyle=orthogonalEdgeStyle;" edge="1" parent="1" target="PLfUyFhFXkoEnL9eVneB-4">
          <mxGeometry width="50" height="50" relative="1" as="geometry">
            <mxPoint x="1000" y="400" as="sourcePoint" />
            <mxPoint x="710" y="260" as="targetPoint" />
            <Array as="points">
              <mxPoint x="1000" y="245" />
            </Array>
          </mxGeometry>
        </mxCell>
        <mxCell id="PLfUyFhFXkoEnL9eVneB-80" value="" style="endArrow=none;html=1;rounded=0;fontSize=12;startSize=8;endSize=8;entryX=1;entryY=0.5;entryDx=0;entryDy=0;edgeStyle=orthogonalEdgeStyle;" edge="1" parent="1" target="PLfUyFhFXkoEnL9eVneB-14">
          <mxGeometry width="50" height="50" relative="1" as="geometry">
            <mxPoint x="1000" y="400" as="sourcePoint" />
            <mxPoint x="1010" y="255" as="targetPoint" />
          </mxGeometry>
        </mxCell>
        <mxCell id="PLfUyFhFXkoEnL9eVneB-81" value="" style="endArrow=diamondThin;endFill=1;endSize=24;html=1;rounded=0;fontSize=12;curved=1;exitX=0;exitY=0.5;exitDx=0;exitDy=0;entryX=0.994;entryY=0.783;entryDx=0;entryDy=0;entryPerimeter=0;" edge="1" parent="1" source="PLfUyFhFXkoEnL9eVneB-4" target="PLfUyFhFXkoEnL9eVneB-22">
          <mxGeometry width="160" relative="1" as="geometry">
            <mxPoint x="610" y="290" as="sourcePoint" />
            <mxPoint x="770" y="290" as="targetPoint" />
          </mxGeometry>
        </mxCell>
        <mxCell id="PLfUyFhFXkoEnL9eVneB-82" value="" style="endArrow=diamondThin;endFill=1;endSize=24;html=1;rounded=0;fontSize=12;curved=1;exitX=0;exitY=0.5;exitDx=0;exitDy=0;" edge="1" parent="1" source="PLfUyFhFXkoEnL9eVneB-8">
          <mxGeometry width="160" relative="1" as="geometry">
            <mxPoint x="840" y="410" as="sourcePoint" />
            <mxPoint x="730" y="400" as="targetPoint" />
          </mxGeometry>
        </mxCell>
        <mxCell id="PLfUyFhFXkoEnL9eVneB-83" value="" style="endArrow=diamondThin;endFill=1;endSize=24;html=1;rounded=0;fontSize=12;curved=1;exitX=0;exitY=0.5;exitDx=0;exitDy=0;entryX=0.999;entryY=0.77;entryDx=0;entryDy=0;entryPerimeter=0;" edge="1" parent="1" source="PLfUyFhFXkoEnL9eVneB-14" target="PLfUyFhFXkoEnL9eVneB-30">
          <mxGeometry width="160" relative="1" as="geometry">
            <mxPoint x="830" y="530" as="sourcePoint" />
            <mxPoint x="720" y="530" as="targetPoint" />
          </mxGeometry>
        </mxCell>
        <mxCell id="PLfUyFhFXkoEnL9eVneB-84" value="Extends" style="endArrow=block;endSize=16;endFill=0;html=1;rounded=0;fontSize=12;exitX=0;exitY=0.134;exitDx=0;exitDy=0;exitPerimeter=0;entryX=1.002;entryY=0.448;entryDx=0;entryDy=0;entryPerimeter=0;" edge="1" parent="1" source="PLfUyFhFXkoEnL9eVneB-28" target="PLfUyFhFXkoEnL9eVneB-18">
          <mxGeometry x="0.0087" width="160" relative="1" as="geometry">
            <mxPoint x="320" y="410" as="sourcePoint" />
            <mxPoint x="220" y="380" as="targetPoint" />
            <mxPoint as="offset" />
          </mxGeometry>
        </mxCell>
        <mxCell id="PLfUyFhFXkoEnL9eVneB-85" value="" style="endArrow=none;html=1;rounded=0;fontSize=12;startSize=8;endSize=8;entryX=0;entryY=0.5;entryDx=0;entryDy=0;edgeStyle=orthogonalEdgeStyle;" edge="1" parent="1" target="PLfUyFhFXkoEnL9eVneB-22">
          <mxGeometry width="50" height="50" relative="1" as="geometry">
            <mxPoint x="300" y="410" as="sourcePoint" />
            <mxPoint x="1010" y="255" as="targetPoint" />
            <Array as="points">
              <mxPoint x="300" y="240" />
            </Array>
          </mxGeometry>
        </mxCell>
        <mxCell id="PLfUyFhFXkoEnL9eVneB-87" value="" style="endArrow=none;html=1;rounded=0;fontSize=12;startSize=8;endSize=8;entryX=0;entryY=0.5;entryDx=0;entryDy=0;edgeStyle=orthogonalEdgeStyle;" edge="1" parent="1" target="PLfUyFhFXkoEnL9eVneB-32">
          <mxGeometry width="50" height="50" relative="1" as="geometry">
            <mxPoint x="300" y="410" as="sourcePoint" />
            <mxPoint x="300" y="520" as="targetPoint" />
            <Array as="points">
              <mxPoint x="300" y="574" />
            </Array>
          </mxGeometry>
        </mxCell>
        <mxCell id="PLfUyFhFXkoEnL9eVneB-88" value="" style="endArrow=diamondThin;endFill=1;endSize=24;html=1;rounded=0;fontSize=12;curved=1;entryX=0.5;entryY=0;entryDx=0;entryDy=0;exitX=0.501;exitY=1.011;exitDx=0;exitDy=0;exitPerimeter=0;" edge="1" parent="1" source="PLfUyFhFXkoEnL9eVneB-18" target="PLfUyFhFXkoEnL9eVneB-33">
          <mxGeometry width="160" relative="1" as="geometry">
            <mxPoint x="-15" y="440" as="sourcePoint" />
            <mxPoint x="240" y="550" as="targetPoint" />
          </mxGeometry>
        </mxCell>
        <mxCell id="PLfUyFhFXkoEnL9eVneB-90" value="Use" style="endArrow=open;endSize=12;dashed=1;html=1;rounded=0;fontSize=12;exitX=0;exitY=0.5;exitDx=0;exitDy=0;entryX=0.495;entryY=1.018;entryDx=0;entryDy=0;entryPerimeter=0;edgeStyle=orthogonalEdgeStyle;" edge="1" parent="1" source="PLfUyFhFXkoEnL9eVneB-38" target="PLfUyFhFXkoEnL9eVneB-36">
          <mxGeometry width="160" relative="1" as="geometry">
            <mxPoint x="340" y="670" as="sourcePoint" />
            <mxPoint x="500" y="670" as="targetPoint" />
            <Array as="points">
              <mxPoint x="4" y="695" />
            </Array>
          </mxGeometry>
        </mxCell>
      </root>
    </mxGraphModel>
  </diagram>
</mxfile>
